/* XPM */
static char *wall_bottom[] = {
/* columns rows colors chars-per-pixel */
"1 5 2 1",
"  c black",
". c white",
/* pixels */
" ",
" ",
".".
" ",
" "
};
