/* XPM */
static char *wall_bottom[] = {
/* columns rows colors chars-per-pixel */
"5 1 2 1",
"  c black",
". c white",
/* pixels */
"  .  "
};
